<svg>

    <symbol viewBox="0 0 16 16" fill="none" xmlns="http://www.w3.org/2000/svg" id="inst">
      <path
        d="M14.7 1.3C13.8 0.4 12.7 0 11.3 0H4.7C1.9 0 0 1.9 0 4.7V11.3C0 12.7 0.4 13.9 1.4 14.7C2.3 15.6 3.4 16 4.7 16H11.3C12.7 16 13.9 15.6 14.7 14.7C15.5 13.8 16 12.7 16 11.3V4.7C16 3.3 15.6 2.1 14.7 1.3ZM8 12.1C5.8 12.1 3.9 10.3 3.9 8C3.9 5.7 5.8 3.9 8 3.9C10.2 3.9 12.1 5.7 12.1 8C12.1 10.3 10.2 12.1 8 12.1ZM12.6 4.7C11.9 4.7 11.3 4.2 11.3 3.4C11.3 2.6 11.8 2.1 12.6 2.1C13.3 2.1 13.9 2.7 13.9 3.4C13.9 4.1 13.3 4.7 12.6 4.7Z"
        fill="#2f3842"
      />
    </symbol>

    <symbol xmlns="http://www.w3.org/2000/svg" viewBox="0 0 28 28" id="dzen">
      <path
        fill="#2f3842"
        d="M16.7 16.7c-2.2 2.27-2.36 5.1-2.55 11.3 5.78 0 9.77-.02 11.83-2.02 2-2.06 2.02-6.24 2.02-11.83-6.2.2-9.03.35-11.3 2.55M0 14.15c0 5.59.02 9.77 2.02 11.83 2.06 2 6.05 2.02 11.83 2.02-.2-6.2-.35-9.03-2.55-11.3-2.27-2.2-5.1-2.36-11.3-2.55M13.85 0C8.08 0 4.08.02 2.02 2.02.02 4.08 0 8.26 0 13.85c6.2-.2 9.03-.35 11.3-2.55 2.2-2.27 2.36-5.1 2.55-11.3m2.85 11.3C14.5 9.03 14.34 6.2 14.15 0c5.78 0 9.77.02 11.83 2.02 2 2.06 2.02 6.24 2.02 11.83-6.2-.2-9.03-.35-11.3-2.55"
      ></path>
      <path
        fill="#fff"
        d="M28 14.15v-.3c-6.2-.2-9.03-.35-11.3-2.55-2.2-2.27-2.36-5.1-2.55-11.3h-.3c-.2 6.2-.35 9.03-2.55 11.3-2.27 2.2-5.1 2.36-11.3 2.55v.3c6.2.2 9.03.35 11.3 2.55 2.2 2.27 2.36 5.1 2.55 11.3h.3c.2-6.2.35-9.03 2.55-11.3 2.27-2.2 5.1-2.36 11.3-2.55"
      ></path>
    </symbol>

    <symbol  xmlns="http://www.w3.org/2000/svg" viewBox="0 0 308 308" fill="#fff" id="whats">
        <g >
        	<path d="M227.904,176.981c-0.6-0.288-23.054-11.345-27.044-12.781c-1.629-0.585-3.374-1.156-5.23-1.156
        		c-3.032,0-5.579,1.511-7.563,4.479c-2.243,3.334-9.033,11.271-11.131,13.642c-0.274,0.313-0.648,0.687-0.872,0.687
        		c-0.201,0-3.676-1.431-4.728-1.888c-24.087-10.463-42.37-35.624-44.877-39.867c-0.358-0.61-0.373-0.887-0.376-0.887
        		c0.088-0.323,0.898-1.135,1.316-1.554c1.223-1.21,2.548-2.805,3.83-4.348c0.607-0.731,1.215-1.463,1.812-2.153
        		c1.86-2.164,2.688-3.844,3.648-5.79l0.503-1.011c2.344-4.657,0.342-8.587-0.305-9.856c-0.531-1.062-10.012-23.944-11.02-26.348
        		c-2.424-5.801-5.627-8.502-10.078-8.502c-0.413,0,0,0-1.732,0.073c-2.109,0.089-13.594,1.601-18.672,4.802
        		c-5.385,3.395-14.495,14.217-14.495,33.249c0,17.129,10.87,33.302,15.537,39.453c0.116,0.155,0.329,0.47,0.638,0.922
        		c17.873,26.102,40.154,45.446,62.741,54.469c21.745,8.686,32.042,9.69,37.896,9.69c0.001,0,0.001,0,0.001,0
        		c2.46,0,4.429-0.193,6.166-0.364l1.102-0.105c7.512-0.666,24.02-9.22,27.775-19.655c2.958-8.219,3.738-17.199,1.77-20.458
        		C233.168,179.508,230.845,178.393,227.904,176.981z"/>
        	<path  d="M156.734,0C73.318,0,5.454,67.354,5.454,150.143c0,26.777,7.166,52.988,20.741,75.928L0.212,302.716
        		c-0.484,1.429-0.124,3.009,0.933,4.085C1.908,307.58,2.943,308,4,308c0.405,0,0.813-0.061,1.211-0.188l79.92-25.396
        		c21.87,11.685,46.588,17.853,71.604,17.853C240.143,300.27,308,232.923,308,150.143C308,67.354,240.143,0,156.734,0z
        		 M156.734,268.994c-23.539,0-46.338-6.797-65.936-19.657c-0.659-0.433-1.424-0.655-2.194-0.655c-0.407,0-0.815,0.062-1.212,0.188
        		l-40.035,12.726l12.924-38.129c0.418-1.234,0.209-2.595-0.561-3.647c-14.924-20.392-22.813-44.485-22.813-69.677
        		c0-65.543,53.754-118.867,119.826-118.867c66.064,0,119.812,53.324,119.812,118.867
        		C276.546,215.678,222.799,268.994,156.734,268.994z"/>
        </g>
    </symbol>

    <symbol xmlns="http://www.w3.org/2000/svg" viewBox="0 0 455 455" id="vk">
        <path d="M0,0v455h455V0H0z M341.098,251.727c10.445,10.19,21.49,19.784,30.865,31.049
        	c4.142,4.978,8.06,10.113,11.046,15.881c4.239,8.264,0.397,17.318-6.985,17.817l-45.875-0.02
        	c-11.841,0.973-21.277-3.801-29.235-11.902c-6.328-6.45-12.243-13.354-18.352-20.023c-2.486-2.746-5.115-5.314-8.239-7.362
        	c-6.267-4.061-11.703-2.828-15.285,3.699c-3.643,6.649-4.499,14.031-4.835,21.435c-0.499,10.807-3.76,13.634-14.607,14.154
        	c-23.208,1.075-45.218-2.451-65.659-14.134c-18.052-10.307-32.022-24.879-44.184-41.356
        	c-23.702-32.124-41.855-67.391-58.154-103.673c-3.684-8.177-0.993-12.559,7.999-12.717c14.99-0.296,29.974-0.26,44.943-0.02
        	c6.089,0.102,10.129,3.582,12.458,9.334c8.101,19.906,18.01,38.85,30.448,56.427c3.327,4.677,6.71,9.334,11.504,12.636
        	c5.314,3.663,9.375,2.466,11.881-3.485c1.595-3.78,2.293-7.8,2.629-11.841c1.192-13.833,1.335-27.681-0.718-41.473
        	c-1.274-8.621-6.149-14.195-14.745-15.825c-4.382-0.836-3.725-2.446-1.615-4.958c3.704-4.315,7.189-7.006,14.093-7.006h51.847
        	c8.177,1.595,10.011,5.278,11.122,13.497l0.041,57.619c-0.097,3.184,1.595,12.615,7.306,14.704
        	c4.575,1.513,7.622-2.171,10.368-5.075c12.417-13.176,21.277-28.756,29.194-44.877c3.505-7.087,6.532-14.449,9.477-21.817
        	c2.17-5.452,5.553-8.137,11.703-8.04l49.916,0.061c1.472,0,2.986,0,4.438,0.239c8.396,1.452,10.705,5.075,8.096,13.293
        	c-4.076,12.875-12.06,23.625-19.84,34.391c-8.341,11.525-17.216,22.647-25.495,34.233
        	C331.087,237.201,331.683,242.535,341.098,251.727z"/>
    </symbol>

    <symbol xmlns="http://www.w3.org/2000/svg" viewBox="0 0 455 455" id="telegram">
        <g>
        	<path  d="M0,0v455h455V0H0z M384.814,100.68l-53.458,257.136
        		c-1.259,6.071-8.378,8.822-13.401,5.172l-72.975-52.981c-4.43-3.217-10.471-3.046-14.712,0.412l-40.46,32.981
        		c-4.695,3.84-11.771,1.7-13.569-4.083l-28.094-90.351l-72.583-27.089c-7.373-2.762-7.436-13.171-0.084-16.003L373.36,90.959
        		C379.675,88.517,386.19,94.049,384.814,100.68z"/>
        	<path  d="M313.567,147.179l-141.854,87.367c-5.437,3.355-7.996,9.921-6.242,16.068
        		l15.337,53.891c1.091,3.818,6.631,3.428,7.162-0.517l3.986-29.553c0.753-5.564,3.406-10.693,7.522-14.522l117.069-108.822
        		C318.739,149.061,316.115,145.614,313.567,147.179z"/>
        </g>
    </symbol>
</svg>