<?xml version="1.0" standalone="no"?>
<!DOCTYPE svg PUBLIC "-//W3C//DTD SVG 20010904//EN"
 "http://www.w3.org/TR/2001/REC-SVG-20010904/DTD/svg10.dtd">
<svg version="1.0" xmlns="http://www.w3.org/2000/svg"
 width="824.000000pt" height="824.000000pt" viewBox="0 0 824.000000 824.000000"
 preserveAspectRatio="xMidYMid meet">
<metadata>
Created by potrace 1.14, written by Peter Selinger 2001-2017
</metadata>
<g transform="translate(0.000000,824.000000) scale(0.100000,-0.100000)"
fill="#000000" stroke="none">
<path d="M1614 8226 c-7 -21 3 -3762 10 -3801 47 -250 78 -359 149 -525 179
-419 518 -849 962 -1219 55 -45 111 -92 125 -104 61 -52 282 -213 402 -295
133 -89 480 -302 494 -302 4 0 15 -6 23 -14 9 -8 98 -56 198 -106 l182 -92
123 61 c227 112 486 260 679 389 39 26 78 52 87 57 236 150 589 436 812 657
141 140 173 175 280 308 47 58 88 107 91 110 18 15 158 236 214 337 109 198
197 437 234 633 6 30 14 71 18 90 4 19 9 888 10 1931 l3 1896 -2546 0 c-1823
0 -2547 -3 -2550 -11z"/>
<path d="M161 980 c-4 -3 -7 -220 -7 -483 l1 -477 137 0 136 0 0 480 c-1 460
-2 480 -19 481 -79 4 -242 3 -248 -1z"/>
<path d="M710 982 c-6 -2 -10 -173 -10 -483 l0 -479 125 0 c112 0 125 2 126
18 0 9 1 118 1 241 0 180 2 221 12 210 7 -8 59 -90 116 -184 57 -93 107 -174
112 -180 4 -5 33 -10 63 -10 54 -1 83 14 96 50 9 22 204 345 209 345 3 0 5
-110 5 -245 l0 -245 126 0 127 0 -2 480 c0 312 -5 480 -11 481 -14 1 -142 1
-186 0 -29 -1 -38 -6 -52 -33 -18 -36 -18 -37 -172 -293 -60 -99 -114 -191
-121 -204 -12 -23 -13 -23 -44 30 -26 47 -119 199 -266 438 l-40 64 -102 1
c-56 1 -107 0 -112 -2z"/>
<path d="M2090 503 l0 -483 135 0 c122 0 135 2 136 18 0 9 2 64 2 122 l2 105
145 6 c155 7 219 23 297 72 200 127 196 444 -7 572 -92 58 -156 67 -467 69
l-243 1 0 -482z m521 241 c47 -27 72 -78 64 -133 -11 -93 -57 -121 -199 -123
-51 0 -98 2 -104 5 -5 4 -9 65 -9 140 l0 133 108 -1 c86 -2 114 -6 140 -21z"/>
<path d="M3169 935 c-1 -65 -1 -863 0 -893 l1 -22 383 2 382 3 2 102 c1 99 1
103 -20 104 -12 0 -124 0 -249 0 -258 0 -230 -11 -230 89 0 28 0 58 1 68 1 16
17 17 211 17 l210 0 1 22 c0 13 1 52 1 88 0 36 -1 72 -1 80 -1 13 -31 15 -211
15 l-210 0 -1 30 c0 17 -1 51 -2 78 l-1 47 242 3 242 2 0 108 0 107 -375 0
-375 0 -1 -50z"/>
<path d="M4173 976 c-3 -5 -6 -221 -6 -480 l0 -471 137 -3 c75 -1 136 1 137 5
0 4 1 62 2 128 l2 120 69 0 c39 0 74 -5 80 -11 6 -6 46 -64 89 -128 l78 -116
144 0 c80 0 145 3 145 6 0 5 -98 149 -167 245 l-33 47 55 41 c193 146 167 458
-48 567 -93 48 -150 55 -424 57 -140 1 -257 -2 -260 -7z m519 -233 c45 -26 70
-76 64 -131 -10 -92 -58 -122 -200 -124 -51 0 -98 2 -103 5 -6 4 -10 65 -10
140 l0 133 108 -2 c86 -1 114 -5 141 -21z"/>
<path d="M5277 978 c-9 -5 -12 -124 -12 -480 l0 -473 136 -3 137 -3 -1 481 c0
346 -3 480 -11 481 -60 4 -240 3 -249 -3z"/>
<path d="M5805 980 c-2 -3 -2 -151 0 -330 2 -345 2 -347 55 -451 40 -78 126
-143 235 -179 54 -18 217 -20 291 -5 162 34 271 143 306 305 10 48 14 143 13
364 l0 299 -128 0 c-70 0 -131 -4 -135 -8 -4 -4 -7 -140 -7 -304 -1 -295 -1
-297 -25 -346 -33 -66 -66 -88 -138 -93 -98 -7 -166 43 -188 138 -4 19 -9 163
-10 320 -1 157 -2 287 -3 290 0 3 -60 5 -132 5 -72 0 -132 -2 -134 -5z"/>
<path d="M6990 982 l-25 -3 2 -477 2 -477 125 -3 c125 -3 126 -2 127 20 0 13
1 121 1 240 1 182 3 214 14 203 8 -7 14 -16 14 -18 0 -5 198 -327 211 -343 13
-16 116 -12 132 6 8 8 60 94 117 190 57 96 108 180 114 187 8 9 11 -55 9 -237
l-1 -250 127 0 127 0 -2 463 c-1 254 -2 471 -3 482 -1 19 -7 20 -112 18 -61
-1 -112 -3 -113 -5 -2 -1 -74 -122 -161 -268 -86 -146 -159 -267 -161 -269 -4
-5 -43 41 -44 52 0 5 -13 28 -30 52 -16 24 -30 46 -30 50 0 3 -9 18 -19 33
-10 15 -63 99 -116 187 -53 88 -99 162 -101 164 -4 5 -168 7 -204 3z"/>
</g>
</svg>
